<?xml version="1.0" encoding="UTF-8" standalone="no"?>
<!-- Generator: Adobe Illustrator 16.0.4, SVG Export Plug-In . SVG Version: 6.00 Build 0)  -->

<svg
   xmlns:dc="http://purl.org/dc/elements/1.1/"
   xmlns:cc="http://creativecommons.org/ns#"
   xmlns:rdf="http://www.w3.org/1999/02/22-rdf-syntax-ns#"
   xmlns:svg="http://www.w3.org/2000/svg"
   xmlns="http://www.w3.org/2000/svg"
   xmlns:sodipodi="http://sodipodi.sourceforge.net/DTD/sodipodi-0.dtd"
   xmlns:inkscape="http://www.inkscape.org/namespaces/inkscape"
   version="1.1"
   id="Ebene_1"
   x="0px"
   y="0px"
   width="150px"
   height="150px"
   viewBox="0 0 150 150"
   enable-background="new 0 0 150 150"
   xml:space="preserve"
   sodipodi:docname="app-dark.svg"
   inkscape:version="0.92.5 (2060ec1f9f, 2020-04-08)"><metadata
   id="metadata15"><rdf:RDF><cc:Work
       rdf:about=""><dc:format>image/svg+xml</dc:format><dc:type
         rdf:resource="http://purl.org/dc/dcmitype/StillImage" /><dc:title></dc:title></cc:Work></rdf:RDF></metadata><defs
   id="defs13" /><sodipodi:namedview
   pagecolor="#ffffff"
   bordercolor="#666666"
   borderopacity="1"
   objecttolerance="10"
   gridtolerance="10"
   guidetolerance="10"
   inkscape:pageopacity="0"
   inkscape:pageshadow="2"
   inkscape:window-width="1920"
   inkscape:window-height="1051"
   id="namedview11"
   showgrid="false"
   inkscape:zoom="1.5733333"
   inkscape:cx="75"
   inkscape:cy="75"
   inkscape:window-x="0"
   inkscape:window-y="-37"
   inkscape:window-maximized="1"
   inkscape:current-layer="g8" />
<g
   id="g8"
   transform="matrix(1.1450926,0,0,1.1450926,-11.129917,-10.784509)">
	<path
   d="m 115,28 h -10 c -5.514,0 -10,4.338 -10,9.853 v 10 1 9 V 68 h 10 4 3 3 c 5.514,0 10,-4.633 10,-10.147 v -20 C 125,32.338 120.514,28 115,28 Z"
   id="path2"
   inkscape:connector-curvature="0"
   style="fill:none" />
	<path
   d="m 80,110 h 0.013 C 80.01,110 80,110.086 80,110.166 c 0,4.01 3.357,7.224 7.5,7.224 4.143,0 7.5,-3.194 7.5,-7.204 C 95,110.104 94.99,110 94.987,110 H 95 V 92 H 80 Z"
   id="path4"
   inkscape:connector-curvature="0"
   style="fill:#000000;fill-opacity:1" />
	<path
   d="M 115,13 H 105 C 91.193,13 80,24.045 80,37.853 v 11 9 V 68 H 46 45 36 C 22.193,68 11,79.046 11,92.853 v 20 C 11,126.659 22.193,138 36,138 h 10 c 13.807,0 25,-11.341 25,-25.147 v -20 C 71,92.518 70.988,92 70.975,92 H 56 v 0.853 7 13 C 56,118.366 51.514,123 46,123 H 36 c -5.514,0 -10,-4.634 -10,-10.147 v -20 C 26,87.339 30.486,83 36,83 h 8 1 1 22.914 2.086 34 7 3 c 13.807,0 25,-11.341 25,-25.147 v -20 C 140,24.045 128.807,13 115,13 Z m 10,44.853 C 125,63.367 120.514,68 115,68 h -3 -3 -4 -10 v -10.147 -9 -1 -10 C 95,32.338 99.486,28 105,28 h 10 c 5.514,0 10,4.338 10,9.853 z"
   id="path6"
   inkscape:connector-curvature="0"
   style="fill:#000000;fill-opacity:1" />
</g>
</svg>