<svg xmlns="http://www.w3.org/2000/svg" width="150" height="150" viewBox="0 0 150 150" fill="#fff">
  <path d="M80 110h.013a.874.874 0 0 0-.013.166c0 4.01 3.357 7.224 7.5 7.224s7.5-3.194 7.5-7.204c0-.082-.01-.186-.013-.186H95V92H80Z"/>
  <path d="M115 13h-10C90.693 13 80 24.045 80 37.353V68h-44C22.193 68 11 78.546 11 92.353v20C11 126.659 22.193 138 36 138h10c13.807 0 25-11.341 25-25.147v-20c0-.335-.012-.853-.025-.853H56v20.853C56 118.366 51.514 123 46 123h-10c-5.514 0-10-4.634-10-10.147v-20C26 87.339 30.486 83 36 83h79c13.807 0 25-11.341 25-25.147v-20C140 24.045 128.807 13 115 13Zm10 44.853c0 5.514-4.486 10.147-10 10.147h-20V37.353c0-5.515 4.486-9.853 10-9.853h10c5.514 0 10 4.338 10 9.853z"/>
</svg>