<svg viewBox="0 0 24 24" height="24" width="24" xmlns="http://www.w3.org/2000/svg" xml:space="preserve" style="fill-rule:evenodd;clip-rule:evenodd;stroke-linejoin:round;stroke-miterlimit:2"><path d="M4 19v-2h2v-7c0-1.383.417-2.613 1.25-3.687A5.767 5.767 0 0 1 10.5 4.2v-.7c0-.417.146-.771.438-1.062A1.443 1.443 0 0 1 12 2c.417 0 .771.146 1.063.438.291.291.437.645.437 1.062v.7a5.767 5.767 0 0 1 3.25 2.113C17.583 7.387 18 8.617 18 10v7h2v2H4Zm8 3c-.55 0-1.021-.196-1.412-.587A1.927 1.927 0 0 1 10 20h4a1.93 1.93 0 0 1-.587 1.413A1.93 1.93 0 0 1 12 22ZM2 10c0-1.667.371-3.196 1.113-4.588A10.157 10.157 0 0 1 6.1 1.95l1.175 1.6a8.073 8.073 0 0 0-2.387 2.775C4.296 7.442 4 8.667 4 10H2Zm18 0c0-1.333-.296-2.558-.887-3.675a8.087 8.087 0 0 0-2.388-2.775l1.175-1.6a10.171 10.171 0 0 1 2.988 3.462C21.629 6.804 22 8.333 22 10h-2Z" style="fill:#fff;fill-rule:nonzero" transform="matrix(1.1 0 0 1.1 -1.2 -1.145)"/></svg>