<svg width="15" height="16" viewBox="0 0 15 16" fill="none" xmlns="http://www.w3.org/2000/svg">
<path d="M12 15H0.999977L1.00048 5H12.0005V8.0002L13.0005 7.9998L13.001 2.9997C13.001 2.4163 12.5845 1.9995 12.0005 1.9996L8.53348 2.0001C8.53428 0.8171 7.58428 0 6.40098 0C5.21768 0 4.26768 0.8171 4.26768 2.0004H1.06768C0.484276 2.0004 0.00147653 2.417 0.00147653 3.0003L0.000976563 15.0003C0.000952263 15.5843 0.484276 16.0003 1.06768 16.0003L12.0007 15.9998C12.5847 15.9988 13.0007 15.5838 13.0007 14.9998V11.9998H12.0007L12 15ZM3.19948 3H4.26668C4.84998 3 5.33328 2.5838 5.33328 2.0004C5.33328 1.4171 5.81668 1.0667 6.39998 1.0667C6.98328 1.0667 7.46668 1.4171 7.46668 2.0004C7.46668 2.5838 7.99998 3 8.53328 3H9.79998C10.317 3 11 3.4166 11 4H1.99998C1.99958 3.35 2.59878 3 3.19878 3H3.19948ZM1.99998 11H3.99998V10H1.99998V11ZM9.99978 9V7L5.99978 10L9.99958 13V11L14.9998 11V8.99995L9.99998 8.9999L9.99978 9ZM1.99978 13H5.99978V12H1.99978V13ZM7.99978 6H1.99978V7H7.99978V6ZM4.99978 8H1.99978V9H4.99978V8Z" fill="black"/>
</svg>
