<svg width="16" height="10" viewBox="0 0 16 10" fill="none" xmlns="http://www.w3.org/2000/svg">
<path d="M0 4.68153V5.31847C3.70196 11.5605 12.298 11.5605 16 5.31847V4.68153C12.298 -1.56051 3.70196 -1.56051 0 4.68153ZM8 8.75796C5.96078 8.75796 4.29804 7.07006 4.29804 5C4.29804 2.92994 5.96078 1.27389 8 1.27389C10.0392 1.27389 11.702 2.92994 11.702 5C11.702 7.07006 10.0392 8.75796 8 8.75796ZM9.85098 5C9.85098 6.05096 9.00392 6.87898 8 6.87898C6.99608 6.87898 6.14902 6.05096 6.14902 5C6.14902 3.98089 6.99608 3.12102 8 3.12102C9.00392 3.12102 9.85098 3.98089 9.85098 5Z" fill="#333333"/>
</svg>
