<svg width="56" height="45" viewBox="0 0 56 45" fill="none" xmlns="http://www.w3.org/2000/svg">
	<path d="M55.7623 12.5961L55.7708 12.5808C55.8186 12.5016 55.8595 12.4179 55.893 12.3306C55.8954 12.3242 55.897 12.3178 55.8994 12.3117C55.9315 12.2253 55.9561 12.1359 55.973 12.0447L55.9749 12.0298C56.0084 11.8433 56.0084 11.6516 55.9749 11.465C55.9741 11.4599 55.9737 11.4548 55.9727 11.4502C55.9559 11.359 55.9314 11.2697 55.8994 11.1834L55.893 11.1642C55.8595 11.077 55.8186 10.9932 55.7708 10.9141L55.7623 10.8987C55.7094 10.8129 55.6487 10.733 55.581 10.6603L46.0916 0.430818C45.8231 0.151254 45.4635 -0.00343875 45.0902 5.8017e-05C44.7169 0.00355478 44.3599 0.164961 44.0959 0.449513C43.8319 0.734065 43.6822 1.119 43.679 1.5214C43.6757 1.9238 43.8192 2.31148 44.0785 2.60093L51.1393 10.2127H39.3904C35.9933 10.2169 32.7365 11.6735 30.3344 14.2629C27.9323 16.8524 26.5811 20.3633 26.5772 24.0253C26.5742 26.8736 25.5233 29.6043 23.655 31.6183C21.7867 33.6324 19.2536 34.7652 16.6114 34.7684H16.0085C15.6527 32.6294 14.567 30.7114 12.965 29.3921C11.363 28.0729 9.3609 27.448 7.35289 27.6405C5.34489 27.833 3.4765 28.829 2.11562 30.4323C0.754745 32.0356 0 34.13 0 36.3032C0 38.4763 0.754745 40.5708 2.11562 42.1741C3.4765 43.7773 5.34489 44.7733 7.35289 44.9658C9.3609 45.1583 11.363 44.5334 12.965 43.2142C14.567 41.8949 15.6527 39.977 16.0085 37.8379H16.6114C20.0085 37.8337 23.2653 36.3771 25.6674 33.7876C28.0695 31.1982 29.4207 27.6873 29.4246 24.0253C29.4275 21.177 30.4784 18.4463 32.3467 16.4323C34.215 14.4182 36.7482 13.2853 39.3904 13.2822H51.1393L44.0785 20.8939C43.9426 21.0355 43.8341 21.2049 43.7595 21.3921C43.6849 21.5793 43.6456 21.7807 43.644 21.9845C43.6423 22.1883 43.6783 22.3904 43.7499 22.579C43.8215 22.7676 43.9272 22.939 44.0609 23.0831C44.1946 23.2272 44.3535 23.3411 44.5285 23.4183C44.7035 23.4955 44.8909 23.5343 45.08 23.5325C45.269 23.5307 45.4558 23.4884 45.6295 23.408C45.8032 23.3275 45.9603 23.2106 46.0916 23.064L55.581 12.8345C55.6487 12.7618 55.7094 12.6819 55.7623 12.5961ZM8.0693 41.9305C7.03685 41.9305 6.02758 41.6005 5.16913 40.9821C4.31067 40.3638 3.64159 39.4849 3.24649 38.4567C2.85138 37.4284 2.74801 36.2969 2.94943 35.2053C3.15085 34.1137 3.64802 33.111 4.37808 32.324C5.10813 31.537 6.03828 31.0011 7.05089 30.7839C8.06351 30.5668 9.11311 30.6782 10.067 31.1042C11.0208 31.5301 11.8361 32.2514 12.4097 33.1768C12.9833 34.1022 13.2895 35.1902 13.2895 36.3032C13.2879 37.7951 12.7374 39.2255 11.7588 40.2804C10.7802 41.3354 9.4533 41.9288 8.0693 41.9305Z" fill="#333333"/>
</svg>
