<svg width="18" height="18" viewBox="0 0 18 18" fill="none" xmlns="http://www.w3.org/2000/svg">
	<path
		d="M14.5116 4.16881e-05H13.1163C12.6593 -0.00223316 12.2064 0.0886143 11.7836 0.267373C11.3607 0.446133 10.9762 0.709286 10.6521 1.04174C10.328 1.37419 10.0707 1.76941 9.89496 2.20471C9.71921 2.64002 9.62845 3.10685 9.62791 3.57843V7.92002H3.48837C3.03142 7.91775 2.57852 8.0086 2.15566 8.18736C1.73281 8.36611 1.3483 8.62927 1.02421 8.96172C0.700123 9.29418 0.442819 9.68939 0.267061 10.1247C0.0913028 10.56 0.000548232 11.0268 2.55124e-06 11.4984V14.3784C-0.00111565 15.3355 0.365383 16.2541 1.01922 16.9329C1.67306 17.6117 2.56094 17.9954 3.48837 18H4.88372C5.81116 17.9954 6.69903 17.6117 7.35287 16.9329C8.00671 16.2541 8.37321 15.3355 8.37209 14.3784V11.4984C8.3745 11.4577 8.3745 11.4168 8.37209 11.376H6.27907V14.3784C6.27947 14.7624 6.13325 15.1312 5.87208 15.4048C5.61091 15.6783 5.25582 15.8347 4.88372 15.84H3.48837C3.11628 15.8347 2.76119 15.6783 2.50001 15.4048C2.23884 15.1312 2.09262 14.7624 2.09303 14.3784V11.4984C2.09375 11.3105 2.13049 11.1247 2.20113 10.9515C2.27177 10.7783 2.37491 10.6213 2.50461 10.4895C2.63431 10.3576 2.78801 10.2536 2.95685 10.1833C3.12569 10.113 3.30633 10.0779 3.48837 10.08H14.5116C15.4391 10.0754 16.3269 9.69173 16.9808 9.01292C17.6346 8.33411 18.0011 7.41555 18 6.45843V3.57843C17.9995 3.10685 17.9087 2.64002 17.7329 2.20471C17.5572 1.76941 17.2999 1.37419 16.9758 1.04174C16.6517 0.709286 16.2672 0.446133 15.8443 0.267373C15.4215 0.0886143 14.9686 -0.00223316 14.5116 4.16881e-05ZM15.907 6.45843C15.9074 6.84247 15.7612 7.21121 15.5 7.48478C15.2388 7.75835 14.8837 7.91472 14.5116 7.92002H11.7209V3.57843C11.7217 3.39056 11.7584 3.20468 11.829 3.03152C11.8997 2.85836 12.0028 2.70134 12.1325 2.56949C12.2622 2.43765 12.4159 2.33359 12.5848 2.26332C12.7536 2.19305 12.9342 2.15795 13.1163 2.16004H14.5116C14.6937 2.15795 14.8743 2.19305 15.0432 2.26332C15.212 2.33359 15.3657 2.43765 15.4954 2.56949C15.6251 2.70134 15.7282 2.85836 15.7989 3.03152C15.8695 3.20468 15.9062 3.39056 15.907 3.57843V6.45843Z"
		fill="#333333"/>
</svg>
