<svg width="16" height="16" viewBox="0 0 16 16" fill="none" xmlns="http://www.w3.org/2000/svg">
<path d="M0 16L0.37656 13.3769L0.75312 10.7537L2.9811 13.0292L5.20908 15.2731L2.60454 15.6208L0 16ZM12.6461 6.26596L5.93082 12.9976L5.20908 12.2391L11.893 5.50746L10.3868 4.02207L3.70284 10.7537L2.9811 9.99523L9.66504 3.26357L8.91192 2.50508L1.47486 9.99523L5.93082 14.483L13.3679 7.02445L12.6461 6.26596ZM15.7214 4.78057C16.0979 4.40132 16.0979 3.73763 15.69 3.32678L12.7089 0.324397C12.301 -0.0864557 11.642 -0.11806 11.2654 0.292793L11.1713 0.387605L9.7278 1.80979L14.1838 6.29756L15.6272 4.87538L15.5959 4.84377C15.6272 4.81217 15.69 4.81217 15.7214 4.78057Z" fill="#333333"/>
</svg>
