<svg width="16" height="14" viewBox="0 0 16 14" fill="none" xmlns="http://www.w3.org/2000/svg">
<path d="M9.22835 0C5.98425 0 3.30709 2.33333 2.61417 5.44444L0 5.41204L3.52756 11.2778L7.1811 5.47685L4.75591 5.44444C5.38583 3.53241 7.14961 2.13889 9.19685 2.13889C11.811 2.13889 13.9213 4.34259 13.9213 7C13.9213 9.68981 11.811 11.8611 9.19685 11.8611C8.25197 11.8611 7.37008 11.537 6.61417 11.0509L5.48031 12.8333C6.55118 13.5463 7.84252 14 9.19685 14C12.9449 14 16 10.8565 16 7C16 3.14352 12.9449 0 9.22835 0Z" fill="#333333"/>
</svg>
