<svg width="14" height="14" viewBox="0 0 14 14" fill="none" xmlns="http://www.w3.org/2000/svg">
<path d="M11.2868 3.24241e-05H10.2015C9.84614 -0.0017369 9.49389 0.0689222 9.165 0.207957C8.83611 0.346992 8.53705 0.551667 8.28498 0.810243C8.03291 1.06882 7.83279 1.37621 7.69608 1.71478C7.55938 2.05335 7.4888 2.41644 7.48837 2.78323V6.16002H2.71318C2.35777 6.15825 2.00552 6.22891 1.67663 6.36794C1.34774 6.50698 1.04868 6.71165 0.796611 6.97023C0.54454 7.2288 0.344415 7.53619 0.207714 7.87476C0.0710133 8.21333 0.000426403 8.57643 1.9843e-06 8.94321V11.1832C-0.000867725 11.9276 0.284187 12.6421 0.792729 13.17C1.30127 13.698 1.99184 13.9964 2.71318 14H3.79845C4.51979 13.9964 5.21036 13.698 5.7189 13.17C6.22744 12.6421 6.5125 11.9276 6.51163 11.1832V8.94321C6.5135 8.91151 6.5135 8.87972 6.51163 8.84801H4.88372V11.1832C4.88404 11.4819 4.77031 11.7687 4.56717 11.9815C4.36404 12.1943 4.08786 12.3159 3.79845 12.32H2.71318C2.42377 12.3159 2.14759 12.1943 1.94446 11.9815C1.74132 11.7687 1.6276 11.4819 1.62791 11.1832V8.94321C1.62847 8.79708 1.65705 8.65252 1.71199 8.51784C1.76693 8.38316 1.84715 8.26103 1.94803 8.15848C2.04891 8.05594 2.16845 7.975 2.29977 7.92035C2.43109 7.86569 2.57159 7.83839 2.71318 7.84001H11.2868C12.0082 7.83646 12.6987 7.53801 13.2073 7.01005C13.7158 6.48209 14.0009 5.76765 14 5.02322V2.78323C13.9996 2.41644 13.929 2.05335 13.7923 1.71478C13.6556 1.37621 13.4555 1.06882 13.2034 0.810243C12.9513 0.551667 12.6523 0.346992 12.3234 0.207957C11.9945 0.0689222 11.6422 -0.0017369 11.2868 3.24241e-05ZM12.3721 5.02322C12.3724 5.32192 12.2587 5.60872 12.0555 5.82149C11.8524 6.03427 11.5762 6.15589 11.2868 6.16002H9.11628V2.78323C9.11684 2.6371 9.14542 2.49253 9.20036 2.35785C9.2553 2.22317 9.33552 2.10104 9.4364 1.99849C9.53728 1.89595 9.65682 1.81502 9.78814 1.76036C9.91946 1.7057 10.06 1.6784 10.2015 1.68003H11.2868C11.4284 1.6784 11.5689 1.7057 11.7002 1.76036C11.8316 1.81502 11.9511 1.89595 12.052 1.99849C12.1529 2.10104 12.2331 2.22317 12.288 2.35785C12.343 2.49253 12.3715 2.6371 12.3721 2.78323V5.02322Z" fill="#333333"/>
</svg>
